# File created by Blade
# Date/Time:  Thu Sep 25 21:01:51 2014
# Frame Rate: 120.000 fps
#------------------------------------------------------
:FULLY-SPECIFIED
:DEGREES
3202
root -7.291679 17.024572 -13.330435 40.974153 -5.300185 3.301938
Spine 37.054923 14.453104 -19.106047
Head -49.784722 -5.218480 41.774882
LeftShoulder 18.920904 -8.699687 28.331531
LeftArm 35.332994 1.272547 -23.078372
LeftForeArm -1.962333 -0.000000 14.554128
LeftHand -15.211117 -0.000000 -13.509079
LeftHandThumb1 -26.253704 0.000000 33.147579
RightShoulder 0.933080 34.645617 -13.905084
RightArm 33.960104 -20.543159 59.072610
RightForeArm -13.312215 -0.000000 27.312818
RightHand -6.068384 0.000000 8.474023
RightHandThumb1 -24.326973 -0.000000 -32.862282
LeftUpLeg -123.514564 -3.626622 -3.086281
LeftLeg 109.499493 -0.000000 -0.000000
LeftFoot -26.382421 -24.320203 -10.302553
LeftToeBase 3.749396 -0.000000 -0.000000
RightUpLeg -53.984072 8.866910 6.615576
RightLeg 117.945042 -0.000000 -0.000000
RightFoot 19.427356 -13.948319 5.871212
RightToeBase -8.602514 -0.000000 0.000000
3203
root -7.343579 17.017533 -13.355528 40.833197 -5.147425 3.300833
Spine 37.018037 14.526101 -18.928290
Head -49.825889 -5.336206 41.706197
LeftShoulder 19.009996 -8.614104 28.369540
LeftArm 35.592173 1.211034 -23.299843
LeftForeArm -2.011084 -0.000000 14.696439
LeftHand -15.224738 -0.000000 -13.186785
LeftHandThumb1 -26.253704 0.000000 33.147579
RightShoulder 0.969288 34.611272 -13.896490
RightArm 33.856314 -20.456919 59.224531
RightForeArm -13.318098 -0.000000 27.099183
RightHand -6.097429 -0.000000 8.336132
RightHandThumb1 -24.326973 -0.000000 -32.862282
LeftUpLeg -123.425974 -3.548676 -3.025467
LeftLeg 109.474066 -0.000000 -0.000000
LeftFoot -26.298309 -24.426436 -10.261480
LeftToeBase 3.567565 -0.000000 -0.000000
RightUpLeg -53.881999 8.795675 6.959486
RightLeg 118.007538 -0.000000 -0.000000
RightFoot 18.810877 -14.497350 6.628055
RightToeBase -7.040386 -0.000000 0.000000
3204
root -7.390726 17.013638 -13.384722 40.771024 -5.016794 3.340984
Spine 36.875189 14.538095 -18.810661
Head -49.897351 -5.524016 41.591046
LeftShoulder 19.005696 -8.536538 28.401295
LeftArm 35.946625 0.999129 -23.755130
LeftForeArm -1.806897 -0.000000 14.805499
LeftHand -15.351704 -0.000000 -12.850264
LeftHandThumb1 -26.253704 0.000000 33.147579
RightShoulder 1.016181 34.406880 -13.911442
RightArm 33.911789 -20.339557 59.342385
RightForeArm -13.134551 -0.000000 26.797981
RightHand -6.105576 -0.000000 7.952502
RightHandThumb1 -24.326973 -0.000000 -32.862282
LeftUpLeg -123.412126 -3.495027 -2.993352
LeftLeg 109.436447 -0.000000 -0.000000
LeftFoot -26.217015 -24.453692 -10.116171
LeftToeBase 3.494181 -0.000000 -0.000000
RightUpLeg -53.871602 8.656650 7.243478
RightLeg 118.073890 -0.000000 -0.000000
RightFoot 18.277480 -15.040867 7.250889
RightToeBase -5.936253 -0.000000 0.000000
3205
root -7.429947 17.010627 -13.416219 40.725427 -4.895999 3.436201
Spine 36.691517 14.485528 -18.722114
Head -49.915236 -5.661304 41.349426
LeftShoulder 18.919138 -8.514170 28.336139
LeftArm 36.308273 1.048252 -24.109628
LeftForeArm -1.863048 0.000000 15.027847
LeftHand -15.409435 0.000000 -12.306261
LeftHandThumb1 -26.253704 0.000000 33.147579
RightShoulder 1.104490 34.396403 -13.950315
RightArm 33.729671 -20.234779 59.622121
RightForeArm -13.202621 -0.000000 26.490643
RightHand -6.076434 -0.000000 8.045482
RightHandThumb1 -24.326973 -0.000000 -32.862282
LeftUpLeg -123.406594 -3.525073 -2.934018
LeftLeg 109.348922 -0.000000 -0.000000
LeftFoot -26.111356 -24.454000 -10.076754
LeftToeBase 3.215862 -0.000000 -0.000000
RightUpLeg -53.865770 8.387744 7.453508
RightLeg 118.190644 -0.000000 -0.000000
RightFoot 17.615131 -15.452552 7.663495
RightToeBase -5.092604 -0.000000 0.000000
3206
root -7.464823 17.010734 -13.441724 40.621570 -4.825800 3.552583
Spine 36.579029 14.520150 -18.608256
Head -50.012942 -5.720087 41.046522
LeftShoulder 18.814909 -8.452267 28.257658
LeftArm 36.733975 1.029527 -24.535666
LeftForeArm -2.180051 -0.000000 15.382555
LeftHand -15.605733 -0.000000 -11.370108
LeftHandThumb1 -26.253704 0.000000 33.147579
RightShoulder 1.152957 34.298202 -14.008729
RightArm 33.607334 -20.062786 59.870933
RightForeArm -13.008244 0.000000 26.191500
RightHand -6.035532 -0.000000 8.055472
RightHandThumb1 -24.326973 -0.000000 -32.862282
LeftUpLeg -123.319109 -3.528515 -3.002757
LeftLeg 109.266330 -0.000000 -0.000000
LeftFoot -26.035395 -24.411441 -9.873366
LeftToeBase 2.948619 -0.000000 -0.000000
RightUpLeg -53.770569 8.156574 7.581622
RightLeg 118.305957 -0.000000 -0.000000
RightFoot 16.883324 -15.730351 8.112618
RightToeBase -4.303690 -0.000000 0.000000
3207
root -7.496643 17.010538 -13.469124 40.551824 -4.796908 3.663919
Spine 36.386721 14.620738 -18.478612
Head -50.118860 -5.912745 40.719058
LeftShoulder 18.677691 -8.425295 28.140736
LeftArm 37.219052 0.933432 -25.128802
LeftForeArm -1.744260 -0.000000 15.736529
LeftHand -15.560620 -0.000000 -10.783629
LeftHandThumb1 -26.253704 0.000000 33.147579
RightShoulder 1.148054 34.131255 -14.102329
RightArm 33.512317 -19.973610 60.050541
RightForeArm -12.832323 -0.000000 25.917276
RightHand -6.095063 -0.000000 7.908727
RightHandThumb1 -24.326973 -0.000000 -32.862282
LeftUpLeg -123.265345 -3.496502 -3.096808
LeftLeg 109.171228 -0.000000 -0.000000
LeftFoot -25.993393 -24.364154 -9.517518
LeftToeBase 2.743239 -0.000000 -0.000000
RightUpLeg -53.689576 7.979464 7.659039
RightLeg 118.444337 -0.000000 -0.000000
RightFoot 16.099144 -15.874959 8.415537
RightToeBase -3.730565 -0.000000 0.000000
3208
root -7.525144 17.012011 -13.485009 40.345118 -4.815290 3.795598
Spine 36.345120 14.760330 -18.356343
Head -50.278815 -6.038492 40.296655
LeftShoulder 18.505439 -8.421597 27.981031
LeftArm 37.628331 0.827042 -25.797385
LeftForeArm -1.550968 0.000000 16.283922
LeftHand -15.592234 0.000000 -9.898976
LeftHandThumb1 -26.253704 0.000000 33.147579
RightShoulder 1.213492 34.238780 -14.161465
RightArm 33.179128 -19.948501 60.329107
RightForeArm -12.749569 -0.000000 25.606318
RightHand -5.968926 0.000000 7.856588
RightHandThumb1 -24.326973 -0.000000 -32.862282
LeftUpLeg -123.072217 -3.444016 -3.262586
LeftLeg 109.123339 -0.000000 -0.000000
LeftFoot -25.875161 -24.289763 -9.017858
LeftToeBase 2.335482 -0.000000 -0.000000
RightUpLeg -53.442363 7.858519 7.685074
RightLeg 118.545603 -0.000000 -0.000000
RightFoot 15.474849 -15.917959 8.514121
RightToeBase -3.159863 -0.000000 0.000000
3209
root -7.547257 17.017767 -13.507386 40.180438 -4.793028 3.964651
Spine 36.261408 14.893141 -18.135133
Head -50.491712 -6.248678 39.826308
LeftShoulder 18.368518 -8.374133 27.817672
LeftArm 38.081826 0.530009 -26.729786
LeftForeArm -1.179816 -0.000000 16.943333
LeftHand -15.707212 -0.000000 -8.927809
LeftHandThumb1 -26.253704 0.000000 33.147579
RightShoulder 1.215075 34.078265 -14.266000
RightArm 33.040219 -19.849594 60.458479
RightForeArm -12.797631 -0.000000 25.355996
RightHand -5.951532 -0.000000 7.957089
RightHandThumb1 -24.326973 -0.000000 -32.862282
LeftUpLeg -122.899764 -3.508402 -3.420922
LeftLeg 109.034217 -0.000000 -0.000000
LeftFoot -25.880750 -23.905348 -8.188731
LeftToeBase 1.692437 -0.000000 -0.000000
RightUpLeg -53.270964 7.713266 7.654812
RightLeg 118.651793 -0.000000 -0.000000
RightFoot 14.908829 -15.876820 8.603874
RightToeBase -2.842556 -0.000000 0.000000
3210
root -7.561891 17.023290 -13.528016 40.030839 -4.825692 4.169747
Spine 36.136962 14.899315 -18.037668
Head -50.742567 -6.346277 39.230352
LeftShoulder 17.974162 -8.209051 27.617203
LeftArm 38.601264 0.215418 -27.758006
LeftForeArm -0.668405 0.000000 17.755299
LeftHand -15.919223 -0.000000 -7.915356
LeftHandThumb1 -26.253704 0.000000 33.147579
RightShoulder 1.312014 34.076184 -14.397035
RightArm 32.748023 -19.728023 60.848888
RightForeArm -13.174014 -0.000000 25.099404
RightHand -5.928022 -0.000000 8.052610
RightHandThumb1 -24.326973 -0.000000 -32.862282
LeftUpLeg -122.738173 -3.573917 -3.627089
LeftLeg 108.921607 -0.000000 -0.000000
LeftFoot -25.823467 -23.493046 -7.175017
LeftToeBase 0.773790 -0.000000 -0.000000
RightUpLeg -53.138975 7.528310 7.558006
RightLeg 118.771766 -0.000000 -0.000000
RightFoot 14.399024 -15.993670 8.814099
RightToeBase -2.977531 -0.000000 0.000000
3211
root -7.570894 17.031684 -13.546302 39.916100 -4.891547 4.391416
Spine 35.962107 14.946716 -17.926617
Head -51.068747 -6.276485 38.559023
LeftShoulder 17.615143 -8.191799 27.321915
LeftArm 38.984419 -0.024581 -28.937478
LeftForeArm 0.344613 -0.000000 18.666091
LeftHand -16.116367 -0.000000 -6.879460
LeftHandThumb1 -26.253704 0.000000 33.147579
RightShoulder 1.263299 33.966405 -14.538705
RightArm 32.590445 -19.643038 61.200999
RightForeArm -13.512250 -0.000000 24.842734
RightHand -6.063967 0.000000 7.981066
RightHandThumb1 -24.326973 -0.000000 -32.862282
LeftUpLeg -122.605827 -3.649873 -3.889314
LeftLeg 108.824452 -0.000000 -0.000000
LeftFoot -25.822421 -22.949943 -5.847524
LeftToeBase -0.235726 -0.000000 0.000000
RightUpLeg -53.045786 7.386072 7.370035
RightLeg 118.900669 -0.000000 -0.000000
RightFoot 13.823547 -16.055246 9.020405
RightToeBase -2.827029 -0.000000 0.000000
3212
root -7.576437 17.041972 -13.563016 39.821218 -4.949182 4.613667
Spine 35.725035 15.025517 -17.736201
Head -51.393782 -6.357592 37.821601
LeftShoulder 17.347543 -8.159396 26.931346
LeftArm 39.270337 -0.266170 -30.189785
LeftForeArm 1.530138 -0.000000 19.690525
LeftHand -16.171224 -0.000000 -5.940964
LeftHandThumb1 -26.253704 0.000000 33.147579
RightShoulder 1.141685 33.899317 -14.742362
RightArm 32.322549 -19.720903 61.530492
RightForeArm -13.667380 -0.000000 24.604800
RightHand -6.080594 -0.000000 7.974255
RightHandThumb1 -24.326973 -0.000000 -32.862282
LeftUpLeg -122.487949 -3.743241 -4.150341
LeftLeg 108.722630 -0.000000 -0.000000
LeftFoot -25.788602 -22.547345 -4.786003
LeftToeBase -0.799179 -0.000000 0.000000
RightUpLeg -52.984728 7.235591 7.177825
RightLeg 119.002819 -0.000000 -0.000000
RightFoot 13.214781 -15.874961 9.675465
RightToeBase -2.581976 -0.000000 0.000000
3213
root -7.576370 17.051407 -13.575967 39.696625 -5.038058 4.838037
Spine 35.494167 15.118291 -17.564411
Head -51.710134 -6.209910 37.023084
LeftShoulder 17.021346 -8.015327 26.590601
LeftArm 39.554903 -0.481556 -31.507763
LeftForeArm 2.507470 0.000000 20.865832
LeftHand -16.504184 -0.000000 -4.648672
LeftHandThumb1 -26.253704 0.000000 33.147579
RightShoulder 1.002424 33.675344 -14.925626
RightArm 32.216159 -19.712165 61.852440
RightForeArm -13.810700 -0.000000 24.313680
RightHand -6.143160 -0.000000 7.813408
RightHandThumb1 -24.326973 -0.000000 -32.862282
LeftUpLeg -122.343282 -3.832335 -4.392997
LeftLeg 108.636097 -0.000000 -0.000000
LeftFoot -25.715337 -22.214890 -4.163158
LeftToeBase -1.293762 -0.000000 0.000000
RightUpLeg -52.901104 7.093420 6.962896
RightLeg 119.145124 -0.000000 -0.000000
RightFoot 12.563028 -15.935951 9.804952
RightToeBase -1.834016 -0.000000 0.000000
